<svg width="150" height="150" viewBox="0 0 150 150" fill="none" xmlns="http://www.w3.org/2000/svg">
<path d="M0 75C0 33.5786 33.5786 0 75 0C116.421 0 150 33.5786 150 75C150 116.421 116.421 150 75 150C33.5786 150 0 116.421 0 75Z" fill="white"/>
<path d="M128 76.3208C128 72.3962 127.649 68.6226 126.996 65H75V86.4088H104.712C103.432 93.327 99.5426 99.1887 93.6956 103.113V117H111.538C121.977 107.365 128 93.1761 128 76.3208Z" fill="#4285F4"/>
<path d="M74.834 130C89.5885 130 101.959 125.025 111 116.54L93.3393 102.601C88.4459 105.934 82.1864 107.904 74.834 107.904C60.6011 107.904 48.5541 98.1313 44.2569 85H26V99.3939C34.9918 117.551 53.4722 130 74.834 130Z" fill="#34A853"/>
<path d="M44 85.5769C42.9102 82.2368 42.291 78.669 42.291 75C42.291 71.331 42.9102 67.7632 44 64.4231V50H25.7957C21.9814 57.7574 19.9966 66.3189 20 75C20 83.9828 22.1053 92.4848 25.7957 100L44 85.5769Z" fill="#FBBC05"/>
<path d="M75.1786 42.096C83.2583 42.096 90.5125 44.899 96.2158 50.404L112 34.4697C102.469 25.5051 90.0122 20 75.1786 20C53.6661 20 35.0553 32.4495 26 50.6061L44.3857 65C48.7132 51.8687 60.8453 42.096 75.1786 42.096Z" fill="#EA4335"/>
</svg>
