<?xml version="1.0" standalone="no"?>
<!DOCTYPE svg PUBLIC "-//W3C//DTD SVG 20010904//EN"
 "http://www.w3.org/TR/2001/REC-SVG-20010904/DTD/svg10.dtd">
<svg version="1.0" xmlns="http://www.w3.org/2000/svg"
 width="700.000000pt" height="700.000000pt" viewBox="0 0 700.000000 700.000000"
 preserveAspectRatio="xMidYMid meet">
<metadata>
Created by potrace 1.14, written by Peter Selinger 2001-2017
</metadata>
<g transform="translate(0.000000,700.000000) scale(0.100000,-0.100000)"
fill="#000000" stroke="none">
<path d="M3338 6995 c-1 -1 -25 -5 -53 -8 -150 -18 -235 -38 -385 -89 -259
-88 -492 -233 -687 -427 -251 -248 -427 -561 -498 -886 -10 -44 -19 -85 -20
-91 -3 -8 -78 -12 -262 -13 -433 -2 -543 -9 -738 -48 -324 -63 -556 -260 -644
-548 -40 -130 -50 -225 -46 -440 3 -110 7 -216 9 -235 2 -19 7 -69 11 -110 3
-41 8 -86 10 -100 7 -48 14 -116 20 -185 4 -38 8 -77 10 -85 2 -8 7 -49 10
-90 3 -41 8 -82 10 -90 2 -8 7 -49 10 -90 3 -41 8 -82 10 -90 2 -8 7 -45 10
-82 3 -37 7 -75 9 -85 2 -10 7 -54 10 -98 4 -44 9 -87 11 -95 2 -8 6 -44 10
-79 3 -36 8 -79 10 -95 2 -17 7 -58 10 -91 8 -76 13 -120 20 -170 2 -22 7 -65
10 -95 3 -30 8 -66 10 -80 2 -14 7 -47 10 -75 8 -70 19 -154 36 -275 6 -41 12
-84 14 -95 2 -11 8 -49 14 -85 6 -36 13 -83 16 -105 4 -22 10 -56 15 -75 5
-19 12 -55 15 -80 11 -78 75 -317 116 -438 204 -592 606 -945 1224 -1076 153
-32 168 -34 240 -42 33 -3 71 -8 85 -10 14 -2 57 -6 95 -9 39 -3 88 -8 110
-10 187 -20 2019 -29 2375 -12 203 10 238 13 435 32 59 6 137 17 160 22 11 2
36 7 55 9 148 20 409 103 555 177 204 101 431 301 554 487 166 251 282 591
361 1060 24 144 26 159 34 220 3 25 8 56 11 69 2 14 7 47 10 75 3 28 8 62 10
76 4 25 11 82 20 168 3 26 8 61 10 77 2 17 7 55 10 85 10 93 15 133 20 175 3
22 8 60 10 85 9 96 22 211 30 270 4 29 13 112 20 185 3 28 7 66 10 85 2 19 7
60 10 90 3 30 8 71 10 90 2 19 7 60 10 90 3 30 7 71 10 90 3 19 7 60 10 90 3
30 8 71 10 90 3 20 7 60 10 90 9 101 17 185 21 215 2 17 6 120 8 230 7 326
-32 492 -159 670 -122 171 -301 275 -557 324 -166 32 -292 39 -696 42 l-272 1
-6 27 c-68 313 -180 557 -361 788 -250 321 -632 566 -1018 653 -79 18 -88 20
-125 26 -19 3 -46 8 -60 10 -27 6 -396 14 -402 9z m382 -639 c164 -31 328 -98
455 -184 55 -38 160 -125 188 -157 10 -11 33 -36 50 -55 101 -110 198 -283
240 -427 l15 -51 -1161 0 c-639 0 -1165 2 -1169 4 -19 12 68 216 140 329 169
267 448 464 752 531 57 12 63 13 115 20 28 3 51 7 53 9 10 8 253 -5 322 -19z
m2320 -1509 c14 -3 50 -8 80 -12 86 -10 171 -43 202 -77 17 -19 32 -52 39 -87
18 -84 15 -310 -5 -486 -2 -16 -7 -66 -11 -110 -4 -44 -9 -88 -11 -98 -2 -10
-6 -46 -9 -80 -4 -34 -8 -75 -10 -92 -2 -16 -6 -57 -10 -90 -7 -68 -13 -123
-20 -175 -2 -19 -7 -62 -10 -95 -3 -33 -7 -76 -10 -95 -4 -33 -9 -76 -20 -175
-3 -25 -7 -64 -10 -87 -2 -24 -7 -65 -10 -93 -3 -27 -7 -66 -10 -85 -2 -19 -7
-57 -10 -85 -2 -27 -10 -90 -16 -140 -5 -49 -12 -110 -15 -135 -2 -25 -6 -56
-9 -70 -2 -14 -7 -52 -10 -85 -4 -33 -8 -71 -10 -85 -2 -14 -7 -45 -10 -70 -5
-39 -14 -97 -40 -275 -19 -131 -71 -370 -106 -494 -119 -410 -318 -629 -669
-734 -87 -27 -220 -54 -300 -62 -25 -3 -58 -7 -75 -10 -28 -4 -75 -9 -205 -20
-310 -27 -2166 -27 -2475 0 -27 2 -81 7 -120 10 -38 3 -83 8 -100 10 -16 3
-48 7 -70 10 -87 11 -209 37 -290 60 -308 89 -510 282 -628 596 -31 84 -67
203 -81 270 -50 235 -86 440 -110 624 -28 221 -40 321 -51 420 -3 25 -7 64
-10 88 -2 23 -7 65 -10 92 -3 28 -7 66 -10 85 -3 19 -8 62 -11 95 -3 33 -7 71
-9 85 -2 14 -7 57 -11 95 -3 39 -8 78 -9 87 -2 9 -7 49 -10 89 -4 40 -8 81
-10 90 -2 10 -7 49 -10 86 -4 37 -8 78 -10 90 -2 12 -7 57 -10 100 -4 43 -9
87 -11 98 -2 11 -6 45 -9 75 -3 30 -7 69 -10 85 -2 17 -7 64 -11 105 -3 41 -8
84 -10 94 -7 38 -18 223 -18 311 0 240 33 294 203 331 36 8 111 17 166 20 55
4 102 8 104 10 6 6 4915 -3 4941 -9z"/>
<path d="M3357 4454 c-1 -1 -37 -4 -80 -8 -215 -18 -505 -115 -660 -220 -21
-14 -40 -26 -43 -26 -11 0 -145 -106 -223 -178 -208 -190 -356 -415 -441 -669
-21 -65 -41 -129 -44 -143 -2 -14 -10 -49 -15 -79 -54 -272 -23 -589 85 -875
158 -415 534 -815 957 -1014 111 -53 289 -111 387 -126 19 -3 45 -8 58 -10 79
-17 361 -25 418 -12 12 2 45 7 75 11 30 4 56 8 59 10 3 2 25 6 48 10 99 14
327 106 457 182 137 81 355 273 457 403 142 181 251 414 292 627 9 43 18 92
22 108 13 65 12 341 -2 434 -30 200 -70 325 -165 516 -87 176 -176 301 -307
432 -141 139 -207 164 -333 127 -52 -15 -75 -37 -572 -532 -366 -365 -524
-529 -539 -560 -26 -54 -30 -132 -12 -195 11 -35 33 -67 85 -122 88 -92 153
-127 234 -126 106 1 125 16 480 369 179 178 329 321 334 318 13 -9 67 -115 95
-189 35 -92 49 -169 50 -277 4 -207 -58 -375 -201 -545 -63 -75 -191 -188
-235 -208 -16 -6 -28 -15 -28 -18 0 -10 -161 -77 -226 -94 -147 -38 -329 -29
-495 25 -85 28 -216 90 -242 114 -7 6 -39 29 -71 51 -134 90 -322 302 -406
458 -41 75 -94 223 -105 292 -12 74 -14 240 -4 290 6 28 12 60 15 73 28 138
122 300 245 423 136 136 288 221 442 247 53 9 242 9 282 0 17 -4 39 -9 50 -12
82 -19 105 -22 144 -19 76 6 127 37 232 140 135 133 163 177 166 264 3 105
-29 167 -116 224 -53 35 -250 87 -384 101 -50 5 -216 11 -220 8z"/>
</g>
</svg>
